<svg width="127" height="48" viewBox="0 0 127 48" fill="none" xmlns="http://www.w3.org/2000/svg">
<g style="mix-blend-mode:luminosity" clip-path="url(#clip0_1_3574)">
<path fill-rule="evenodd" clip-rule="evenodd" d="M125.591 30.5633C120.335 38.4606 112.012 36.1691 109.512 34.3749C108.448 35.0147 106.583 36.417 104.095 36.255C98.7975 35.9104 96.9004 29.2007 96.9004 29.2007C96.9384 29.2275 95.3223 29.6949 94.4489 29.6866C94.4377 31.6542 92.5185 36.3546 87.3392 36.2945C81.5273 36.2273 80.3457 28.5531 80.3457 28.5531C80.3457 28.5531 79.7673 29.2649 77.5682 29.9739C77.6789 28.4622 77.598 36.0644 70.6321 36.1761C65.1252 36.2646 63.6386 28.4348 63.6386 28.4348C63.6386 28.4348 62.6833 29.3143 60.8319 29.6194C60.9495 28.0831 60.7582 36.2019 53.7915 36.1761C49.0835 36.1588 47.4747 31.353 47.5998 30.686C47.7595 29.8359 46.0087 36.2957 41.4355 36.195C39.5483 36.1459 38.1414 34.9349 37.2585 33.3204C36.0767 34.5189 34.3608 36.195 32.4358 36.195C28.9805 36.195 27.4573 33.6337 27.7153 26.3179C27.7373 25.4502 27.6666 25.109 26.6934 24.9792C26.1092 24.8928 25.511 24.7292 24.878 24.643C24.6751 25.243 22.9545 35.9998 17.0376 36.204C15.0526 36.2725 13.9672 34.7485 13.0758 33.6174C11.7094 35.2194 9.90574 36.255 7.33621 36.255C2.98362 36.255 0.0180664 33.1365 0.0180664 29.2895C0.0180664 25.4425 2.98362 22.3242 7.33621 22.3242C8.10579 22.3242 8.32183 22.422 9.02489 22.6038C7.57902 10.9365 10.9936 9.11303 13.9806 9.11303C16.8483 9.11303 21.7474 15.012 14.8539 29.9751C16.3844 34.4381 19.6838 34.1857 21.2693 24.9982C21.592 23.1307 20.7292 20.6105 22.0713 20.2588C24.5246 19.616 24.7849 21.5446 25.9351 21.866C27.1514 22.2056 27.8614 22.1724 29.029 22.3885C31.0243 22.7339 31.8029 23.6838 31.5598 25.7996C31.2679 28.4767 30.7572 32.3732 32.3142 32.8481C33.437 33.1931 35.487 31.1293 35.8468 30.0001C36.2064 28.871 36.2815 28.4845 36.3135 27.6563C36.3621 25.8861 36.4232 24.5886 36.7637 23.2499C36.9095 22.7319 37.0757 22.3888 37.7369 22.3654C38.2811 22.3531 39.2761 22.2079 39.7141 22.51C40.298 22.8988 40.225 23.2933 40.158 24.3316C39.479 39.1353 44.705 31.7452 46.2632 25.8279C45.7083 19.1369 46.0892 9.23555 50.8201 9.06949C53.2805 8.98313 54.3682 10.7301 54.4879 12.034C54.8263 15.7168 52.9307 21.8172 50.4377 25.9197C49.0129 34.2907 56.6673 35.9459 57.8914 29.2642C55.8887 28.4202 53.7243 25.0044 55.4856 23.3397C56.4739 22.4055 60.5876 23.7476 60.655 26.6748C62.6729 26.1965 62.9423 25.1867 62.9703 25.354C62.4156 18.663 62.93 9.23564 67.6612 9.06957C70.1213 8.98321 71.2089 10.7301 71.3285 12.0341C71.6669 15.7168 69.7713 21.8173 67.2786 25.9199C65.8536 34.2907 73.5083 35.946 74.732 29.2643C73.2493 29.0107 70.1193 25.3775 71.9252 23.3398C72.8903 22.2509 76.989 24.5154 77.4479 26.7717C79.3864 26.2855 79.6497 25.3078 79.6775 25.4724C79.1226 18.7816 79.6371 9.35422 84.3683 9.18815C86.8284 9.10179 87.9159 10.8487 88.0356 12.1527C88.374 15.8354 86.4784 21.936 83.9854 26.0385C82.5607 34.4095 90.2152 36.0644 91.4393 29.3827C89.4016 29.082 86.5059 25.2458 88.8365 23.2833C89.7677 22.4992 93.3258 24.5346 94.1586 26.8568C95.3159 26.8173 96.0362 26.4636 96.1906 26.4279C94.3432 18.573 95.7185 9.14836 100.808 9.06969C103.559 9.02721 106.248 10.3877 105.068 17.8606C103.941 24.9906 99.8907 27.9827 99.9001 28.0285C100.136 28.8827 102.214 36.0312 107.448 32.2594C107.177 31.7157 106.906 31.1603 106.754 30.4874C105.886 26.5677 107.59 22.1404 112.221 21.4249C114.875 21.0149 117.374 22.1598 117.769 24.741C118.42 28.9645 114.116 32.0233 112.48 32.6868C111.747 32.3178 119.124 36.5107 123.501 28.108C123.755 27.6282 124.061 27.6689 124.458 27.9162C124.738 28.0908 126.333 29.4299 125.591 30.5633ZM10.5023 28.2517C10.2796 27.6615 9.82247 26.361 9.66082 25.7976C8.77059 25.1114 8.13516 25 6.99246 25C4.45303 25 2.95837 27.0809 2.95837 29.3247C2.95837 31.5684 4.58669 33.6496 7.12614 33.6496C9.32686 33.6496 11.0018 32.3235 11.5128 30.4462C11.1551 29.7143 10.8003 29.0417 10.5023 28.2517ZM13.9184 12.2015C12.134 12.2015 11.5287 15.974 11.6462 19.1924C11.7501 22.0378 12.6472 24.5428 13.1126 25.6653C13.2307 25.8059 13.2088 25.7144 13.3143 25.8636C16.4124 19.8472 15.1274 12.2015 13.9184 12.2015ZM51.0749 12.32C48.7688 12.0855 48.7837 20.6001 49.0699 22.51C50.2677 20.8118 52.3483 12.7772 51.0749 12.32ZM67.9156 12.32C65.6094 12.0855 65.6243 20.6001 65.9107 22.51C67.1083 20.8118 69.1891 12.7772 67.9156 12.32ZM84.6228 12.4384C82.3165 12.204 82.3314 20.7186 82.6178 22.6287C83.8154 20.9303 85.8962 12.8956 84.6228 12.4384ZM101.062 11.8215C97.4693 12.461 98.306 23.0789 98.8518 24.9412C103.084 19.789 103.171 11.628 101.062 11.8215ZM114.529 25.0903C114.346 24.4133 113.433 24.0515 112.802 24.1407C110.998 24.359 109.248 26.3505 109.925 29.3824C110.076 30.0576 110.454 30.6792 110.447 30.6585C114.485 28.2577 114.828 26.3659 114.529 25.0903ZM38.4442 20.0218C37.9286 20.0219 37.4245 19.8864 36.9957 19.6326C36.567 19.3787 36.2327 19.0179 36.0353 18.5957C35.8379 18.1735 35.7862 17.7089 35.8868 17.2607C35.9873 16.8124 36.2357 16.4007 36.6002 16.0775C36.9648 15.7543 37.4293 15.5342 37.935 15.4451C38.4408 15.3559 38.965 15.4016 39.4414 15.5765C39.9179 15.7514 40.325 16.0476 40.6114 16.4276C40.8979 16.8076 41.0508 17.2544 41.0508 17.7114C41.0508 18.0148 40.9834 18.3152 40.8523 18.5955C40.7215 18.8758 40.5295 19.1305 40.2874 19.345C40.0453 19.5596 39.758 19.7298 39.4418 19.8459C39.1255 19.962 38.7866 20.0218 38.4442 20.0218Z" fill="#0D0C22"/>
</g>
<defs>
<clipPath id="clip0_1_3574">
<rect width="126.369" height="48" fill="white" transform="translate(0.0180664)"/>
</clipPath>
</defs>
</svg>
