<svg width="30" height="30" viewBox="0 0 30 30" fill="none" xmlns="http://www.w3.org/2000/svg">
<circle cx="15" cy="15" r="15" fill="white"/>
<path d="M8.22178 22.0588H11.3059V12.0745H8.22178V22.0588Z" fill="black"/>
<path d="M7.94141 8.88696C7.94141 9.87134 8.7358 10.6682 9.76384 10.6682C10.7451 10.6682 11.5395 9.87134 11.5395 8.88696C11.5395 7.90259 10.7451 7.05884 9.76384 7.05884C8.7358 7.05884 7.94141 7.90259 7.94141 8.88696Z" fill="black"/>
<path d="M19.8106 22.0588H22.9414V16.5745C22.9414 13.9026 22.3339 11.7932 19.2031 11.7932C17.7078 11.7932 16.6797 12.637 16.2592 13.4338H16.2124V12.0745H13.2685V22.0588H16.3526V17.137C16.3526 15.8245 16.5863 14.5588 18.2218 14.5588C19.8106 14.5588 19.8106 16.0588 19.8106 17.1838V22.0588Z" fill="black"/>
</svg>
